<svg data-v-0dd9719b="" version="1.0" xmlns="http://www.w3.org/2000/svg" xmlns:xlink="http://www.w3.org/1999/xlink" width="100%" height="100%" viewBox="0 0 340.000000 250.000000" preserveAspectRatio="xMidYMid meet" color-interpolation-filters="sRGB" style="margin: auto;"> <rect data-v-0dd9719b="" x="0" y="0" width="100%" height="100%" fill="#fff" fill-opacity="1" class="background"></rect> <rect data-v-0dd9719b="" x="0" y="0" width="100%" height="100%" fill="url(#watermark)" fill-opacity="1" class="watermarklayer"></rect> <g data-v-0dd9719b="" fill="#333" class="icon-text-wrapper icon-svg-group iconsvg" transform="translate(48.344993591308594,91.58758926391602)"><g class="iconsvg-imagesvg" transform="translate(0,0)"><g><rect fill="#333" fill-opacity="0" stroke-width="2" x="0" y="0" width="60" height="66.82481873767918" class="image-rect"></rect> <svg x="0" y="0" width="60" height="66.82481873767918" filtersec="colorsb6936372949" class="image-svg-svg primary" style="overflow: visible;"><svg xmlns="http://www.w3.org/2000/svg" viewBox="0 -0.0028373277746140957 89.81000518798828 100.02556610107422"><title>资源 134</title><path d="M64.35 47.87c-.58 0-1.17 0-1.74.05.34.73.66 1.46 1 2.2a64.86 64.86 0 0 1 5.14 25.46 65.77 65.77 0 0 1-1.34 13.26L84.44 79a11.89 11.89 0 0 0 5.37-9.28v-10a33.48 33.48 0 0 0-25.46-11.85zM21.49 69a9.3 9.3 0 0 1 9.3-9.31 9.07 9.07 0 0 1 1.66.15 39.44 39.44 0 0 1 4.73-5.73 38.15 38.15 0 0 1 15.09-9.32 58 58 0 0 0-41.94-26.64L5.38 21A11.9 11.9 0 0 0 0 30.28v39.44A11.9 11.9 0 0 0 5.38 79l22 12.68a38.86 38.86 0 0 1-1.19-14.63 9.3 9.3 0 0 1-4.7-8.05z" fill="#275cde"></path><path d="M84.44 21L50.28 1.28a11.86 11.86 0 0 0-10.73 0L20.29 12.4a64 64 0 0 1 8.49 2.92 65.23 65.23 0 0 1 20.79 14 65.61 65.61 0 0 1 10.52 13.76 37.62 37.62 0 0 1 4.26-.24 38.33 38.33 0 0 1 25.46 9.64v-22.2A11.92 11.92 0 0 0 84.44 21z" fill="#0a2183"></path><path d="M37 62.08a9.31 9.31 0 0 1-5.95 16.2c-.08 1-.13 2-.13 3a33.2 33.2 0 0 0 3.26 14.39l5.33 3.07a11.84 11.84 0 0 0 10.72 0l7.87-4.54a57.76 57.76 0 0 0-3.27-44.94A33.46 33.46 0 0 0 37 62.08z" fill="#01cfff"></path></svg></svg> <!----></g></g> <g transform="translate(67,5.371162414550781)"><g data-gra="path-name" fill-rule="" class="tp-name iconsvg-namesvg" transform="translate(0,0)"><g transform="scale(1)"><g><path d="M20.21-36.56L20.21-36.56Q24.26-35.68 24.96-35.16L24.96-35.16Q24.96-35.16 24.43-34.63L24.43-34.63Q23.91-34.1 23.73-33.93L23.73-33.93Q31.11-23.91 43.24-21.45L43.24-21.45Q41.31-20.04 40.08-17.23L40.08-17.23Q27.95-21.97 21.8-31.99L21.8-31.99Q14.77-22.15 5.1-16L5.1-16Q4.22-17.4 2.29-18.98L2.29-18.98Q1.93-19.16 1.76-19.34L1.76-19.34Q13.71-23.73 20.21-36.56ZM31.11-1.93L31.11-10.02 12.48-10.02 12.48-1.93 31.11-1.93ZM32.17-20.92L32.17-20.92 32.17-17.4Q29.53-17.58 24.61-17.75L24.61-17.75 19.16-17.75Q14.94-17.75 11.95-17.4L11.95-17.4 11.95-20.92Q14.41-20.74 19.16-20.57L19.16-20.57 24.61-20.57Q30.06-20.74 32.17-20.92ZM35.33-13.54L35.33-13.54Q35.16-12.3 35.16-9.14L35.16-9.14 35.16-0.18Q35.16 2.11 35.51 4.22L35.51 4.22 30.76 4.22Q31.29 2.29 31.11 0.7L31.11 0.7 12.48 0.7Q12.48 2.99 12.66 4.57L12.66 4.57 8.44 4.57Q8.79 2.99 8.79 0.53L8.79 0.53 8.79-9.49Q8.79-10.37 8.44-13.01L8.44-13.01Q8.79-11.07 8.44-13.54L8.44-13.54Q10.37-13.18 12.48-13.18L12.48-13.18 30.94-13.18Q32.17-13.18 35.33-13.54ZM54.84-34.8L54.84-34.8 57.83-34.8Q59.59-34.8 61.52-34.98L61.52-34.98Q62.23-34.98 62.4-34.98L62.4-34.98Q62.05-32.7 62.05-29.71L62.05-29.71 62.05-2.99Q62.05 0 61 0.88L61 0.88Q60.47 1.58 55.55 2.46L55.55 2.46Q55.02 0.18 53.79-1.05L53.79-1.05Q53.44-1.41 53.61-1.58L53.61-1.58Q59.41-0.88 58.71-3.69L58.71-3.69 58.71-12.13 53.61-12.13Q53.09-3.16 49.57 3.34L49.57 3.34Q48.16 1.41 46.41 1.05L46.41 1.05Q50.27-3.52 50.1-19.16L50.1-19.16 50.1-29.88Q50.1-32.34 49.92-34.45L49.92-34.45Q49.92-34.98 49.92-34.98L49.92-34.98Q50.1-34.98 54.84-34.8ZM85.25-34.45L85.25-34.45Q84.9-33.75 84.9-30.06L84.9-30.06 84.9-17.75Q84.9-16.88 85.08-14.77L85.08-14.77Q85.25-12.3 85.25-11.25L85.25-11.25 81.39-11.25Q81.56-13.01 81.56-15.12L81.56-15.12 69.43-15.12 69.43-6.5Q68.55 0 73.65-1.23L73.65-1.23 79.1-1.23Q83.85-0.7 84.02-5.98L84.02-5.98Q85.61-3.87 87.89-3.52L87.89-3.52Q86.66 2.64 81.74 1.93L81.74 1.93 72.25 1.93Q64.86 3.16 65.92-3.87L65.92-3.87 65.92-30.59Q65.92-32.17 65.74-33.93L65.74-33.93Q65.74-34.28 65.74-34.45L65.74-34.45Q67.5-34.1 69.96-34.1L69.96-34.1 80.16-34.1Q82.97-34.1 85.25-34.45ZM58.71-24.96L58.71-31.64 53.61-31.64 53.61-24.96 58.71-24.96ZM73.65-31.11L69.43-31.11 69.43-18.11 73.65-18.11 73.65-31.11ZM81.56-31.11L76.82-31.11 76.82-18.11 81.56-18.11 81.56-31.11ZM58.71-14.94L58.71-21.97 53.61-21.97 53.61-14.94 58.71-14.94ZM109.69-36.56L109.69-36.56Q112.68-36.56 114.08-36.39L114.08-36.39Q115.14-36.21 114.43-34.98L114.43-34.98Q113.73-33.93 113.73-33.05L113.73-33.05 113.73-29.53 122.34-29.53Q126.39-29.53 127.62-29.88L127.62-29.88 127.62-25.84Q126.21-26.19 122.34-26.19L122.34-26.19 113.91-26.19 113.91-19.51 127.62-19.51Q130.78-19.51 132.54-19.86L132.54-19.86 132.54-15.64Q131.13-16 127.79-16L127.79-16 113.91-16 113.91-11.07 115.49-13.36Q120.76-10.55 126.74-5.63L126.74-5.63 123.57-2.11Q120.76-4.92 113.91-9.14L113.91-9.14 113.91-1.05Q113.91 2.99 114.26 4.39L114.26 4.39 109.51 4.39Q109.86 3.16 109.86-1.05L109.86-1.05 109.86-16 98.26-16Q94.57-16 92.81-15.64L92.81-15.64 92.81-19.86Q94.39-19.51 98.61-19.51L98.61-19.51 109.86-19.51 109.86-32.52Q109.86-34.8 109.69-36.39L109.69-36.39Q109.69-36.56 109.69-36.56ZM165.76-35.51L165.76-35.51Q165.23-32.87 165.41-31.11L165.41-31.11 165.41-24.61Q165.41-21.45 176.13-23.91L176.13-23.91Q175.25-22.32 175.08-20.21L175.08-20.21Q175.08-19.51 175.08-18.98L175.08-18.98Q160.49-18.81 161.72-23.38L161.72-23.38 161.72-31.82 153.11-31.82Q153.11-24.08 151.35-22.15L151.35-22.15Q149.41-19.34 141.86-17.05L141.86-17.05Q140.63-19.16 138.52-20.57L138.52-20.57Q149.41-21.62 149.41-28.48L149.41-28.48 149.41-31.29Q149.59-32.87 149.06-35.51L149.06-35.51Q151.88-34.98 153.98-35.16L153.98-35.16 161.19-35.16Q162.95-34.98 165.76-35.51ZM155.21-21.09L155.21-21.09Q160.49-20.39 160.31-20.04L160.31-20.04Q160.31-20.04 160.14-19.69L160.14-19.69Q159.26-18.11 159.26-16.7L159.26-16.7 159.26-14.77 170.33-14.77Q176.13-14.94 177.19-15.12L177.19-15.12 177.19-11.25Q176.84-11.43 173.67-11.6L173.67-11.6Q170.86-11.78 170.33-11.6L170.33-11.6 162.6-11.6Q167.7-3.87 178.07-2.64L178.07-2.64Q175.43-0.35 174.73 1.58L174.73 1.58Q162.25-2.46 159.26-10.9L159.26-10.9 159.26-2.99Q159.08 0 159.61 3.69L159.61 3.69 155.21 3.69Q155.39 3.16 155.57 0L155.57 0Q155.74-2.46 155.57-2.99L155.57-2.99 155.57-10.2Q152.05-3.52 140.98 1.93L140.98 1.93Q139.39-0.18 137.29-1.05L137.29-1.05Q147.83-4.22 152.05-11.6L152.05-11.6 145.02-11.6Q141.86-11.78 137.81-11.25L137.81-11.25 137.81-15.12Q138.69-14.94 145.02-14.77L145.02-14.77 155.57-14.77 155.57-16.7Q155.74-18.46 155.21-21.09Z" transform="translate(-1.7599999904632568, 36.560001373291016)"></path></g> <!----> <!----> <!----> <!----> <!----> <!----> <!----></g></g> <g data-gra="path-slogan" fill-rule="" class="tp-slogan iconsvg-slogansvg" fill="#333" transform="translate(5,47.130001068115234)"><rect x="0" height="1" y="3.9750003814697266" width="40.33500671386719"></rect> <rect height="1" y="3.9750003814697266" width="40.33500671386719" x="125.97500610351562"></rect> <g transform="translate(43.33500671386719,0)"><g transform="scale(1)"><path d="M2.06-5.06L6.56-5.06L6.56-8.58L7.73-8.58L7.73 0L6.56 0L6.56-3.98L2.06-3.98L2.06 0L0.89 0L0.89-8.58L2.06-8.58L2.06-5.06ZM10.83-1.03L15.98-1.03L15.98 0L9.66 0L9.66-8.58L15.89-8.58L15.89-7.59L10.83-7.59L10.83-4.92L15.52-4.92L15.52-3.89L10.83-3.89L10.83-1.03ZM23.02-3.89L18.80-3.89L18.80 0L17.63 0L17.63-8.58L23.58-8.58L23.58-7.59L18.80-7.59L18.80-4.92L23.02-4.92L23.02-3.89ZM26.06-1.03L31.22-1.03L31.22 0L24.89 0L24.89-8.58L31.13-8.58L31.13-7.59L26.06-7.59L26.06-4.92L30.75-4.92L30.75-3.89L26.06-3.89L26.06-1.03ZM32.91-8.58L34.08-8.58L34.08 0L32.91 0L32.91-8.58ZM41.91-4.31L40.55-3.05L40.55 0L39.38 0L39.38-8.58L40.55-8.58L40.55-4.41L44.72-8.58L46.36-8.58L42.75-5.11L46.45 0L44.91 0L41.91-4.31ZM53.02 0L52.17-2.48L48.70-2.48L47.81 0L46.64 0L49.88-8.58L51.19-8.58L54.28 0L53.02 0ZM50.44-7.31L49.08-3.52L51.75-3.52L50.48-7.31L50.44-7.31ZM58.83 0L55.36 0L55.36-8.58L58.88-8.58Q62.34-8.39 62.48-4.41L62.48-4.41Q62.30-0.09 58.83 0L58.83 0ZM58.69-7.64L56.53-7.64L56.53-0.98L58.78-0.98Q61.22-1.13 61.31-4.31L61.31-4.31Q61.27-7.55 58.69-7.64L58.69-7.64ZM69.61-3.19L69.61-8.58L70.78-8.58L70.78-3.05Q70.64 0.05 67.27 0.14L67.27 0.14Q64.13 0.05 63.98-2.86L63.98-2.86L63.98-8.58L65.16-8.58L65.16-3.19Q65.20-0.84 67.31-0.80L67.31-0.80Q69.61-0.84 69.61-3.19L69.61-3.19ZM79.36-4.27L79.36-4.27Q79.17-7.64 76.36-7.83L76.36-7.83Q73.50-7.69 73.36-4.27L73.36-4.27Q73.50-0.94 76.36-0.80L76.36-0.80Q79.17-0.98 79.36-4.27ZM80.53-4.27L80.53-4.27Q80.25 0 76.36 0.14L76.36 0.14Q72.42 0 72.14-4.27L72.14-4.27Q72.38-8.72 76.36-8.81L76.36-8.81Q80.25-8.67 80.53-4.27Z" transform="translate(-0.890625, 8.8125)"></path></g></g></g></g></g><defs v-gra="od"></defs></svg>